<svg width="128" height="32" viewBox="0 0 128 32" fill="none" xmlns="http://www.w3.org/2000/svg">
<path fill-rule="evenodd" clip-rule="evenodd" d="M27.1649 8.57273C27.0989 8.47241 27.1108 8.3387 27.1955 8.25368L28.6379 6.80598C28.7461 6.69737 28.9259 6.71192 29.0137 6.83775C33.3663 13.0787 32.7664 21.7403 27.2135 27.3137C21.6606 32.887 13.0307 33.4891 6.81267 29.1204C6.68731 29.0324 6.67281 28.8519 6.78102 28.7433L8.22342 27.2956C8.30813 27.2106 8.44134 27.1986 8.54129 27.2649C13.3456 30.4509 19.7391 30.2157 24.3084 26.559C24.423 26.4673 24.4312 26.2958 24.3275 26.1917L15.0546 16.8847C15.0079 16.8378 14.9445 16.8115 14.8785 16.8115L2.78911 16.8113C2.64568 16.8113 2.53167 16.9325 2.54304 17.076C2.78146 20.0843 4.02135 23.0276 6.26263 25.3605C6.35812 25.4599 6.3584 25.6181 6.26113 25.7157L4.84519 27.1369C4.74792 27.2345 4.58935 27.2339 4.49359 27.1348C-1.55585 20.8734 -1.49725 10.8753 4.66906 4.68625C10.8354 -1.50276 20.7969 -1.56157 27.0353 4.51013C27.1341 4.60624 27.1346 4.76539 27.0374 4.86302L25.6214 6.28417C25.5242 6.3818 25.3665 6.38153 25.2675 6.28569C22.9842 4.07587 20.1139 2.83599 17.1718 2.56628C17.0279 2.55309 16.9052 2.66792 16.9052 2.81301L16.9057 15.0896C16.9057 15.1559 16.9319 15.2195 16.9786 15.2664L26.0957 24.417C26.1994 24.5211 26.3702 24.5129 26.4616 24.3979C30.1049 19.8118 30.3392 13.3948 27.1649 8.57273ZM14.405 2.87776C14.405 2.72843 14.2754 2.61222 14.128 2.63225C11.7885 2.95016 9.51623 3.88656 7.57376 5.44124C7.45914 5.53297 7.45139 5.70411 7.55505 5.80816L13.9796 12.2564C14.1365 12.4138 14.4048 12.3023 14.4048 12.0796L14.405 2.87776ZM5.78686 7.58285C5.6832 7.47881 5.51268 7.48659 5.42128 7.60163C3.90728 9.50718 2.98217 11.7285 2.6454 14.0204C2.62352 14.1693 2.73965 14.3013 2.88959 14.3013L11.8794 14.3014C12.1013 14.3014 12.2125 14.0321 12.0556 13.8746L5.78686 7.58285Z" fill="#D80000"></path>
<path d="M115.645 23.85V23.25L117.758 23.05H119.013L121.125 23.25V23.85H115.645ZM117.04 23.85C117.067 23.5167 117.08 23.07 117.08 22.51C117.093 21.95 117.1 21.37 117.1 20.77C117.113 20.1567 117.12 19.6167 117.12 19.15V17.65C117.12 16.9833 117.113 16.43 117.1 15.99C117.087 15.5367 117.067 15.0633 117.04 14.57L115.486 14.43V13.95L119.392 12.85L119.651 13.01L119.81 15.29V19.15C119.81 19.6167 119.81 20.1567 119.81 20.77C119.823 21.37 119.83 21.95 119.83 22.51C119.843 23.07 119.857 23.5167 119.87 23.85H117.04ZM122.52 23.85V23.25L124.593 23.05H125.848L128 23.25V23.85H122.52ZM123.895 23.85C123.908 23.5167 123.915 23.0767 123.915 22.53C123.928 21.97 123.935 21.39 123.935 20.79C123.948 20.1767 123.955 19.63 123.955 19.15V16.45C123.955 15.61 123.822 15.0233 123.556 14.69C123.304 14.3433 122.925 14.17 122.421 14.17C122.022 14.17 121.53 14.33 120.946 14.65C120.361 14.9567 119.764 15.47 119.153 16.19L119.073 15.33H119.372C120.116 14.3833 120.82 13.73 121.484 13.37C122.161 12.9967 122.859 12.81 123.576 12.81C124.506 12.81 125.243 13.1167 125.788 13.73C126.346 14.3433 126.625 15.31 126.625 16.63V19.15C126.625 19.63 126.625 20.1767 126.625 20.79C126.638 21.39 126.652 21.97 126.665 22.53C126.678 23.0767 126.691 23.5167 126.705 23.85H123.895Z" fill="white"></path>
<path d="M106.201 24.17C105.364 24.17 104.673 23.9367 104.129 23.47C103.597 22.99 103.332 22.33 103.332 21.49C103.332 20.9167 103.458 20.4167 103.71 19.99C103.963 19.55 104.381 19.1633 104.966 18.83C105.563 18.4833 106.36 18.17 107.357 17.89C107.888 17.7433 108.479 17.5833 109.13 17.41C109.794 17.2367 110.392 17.09 110.924 16.97V17.47C110.392 17.6033 109.861 17.75 109.329 17.91C108.798 18.0567 108.353 18.19 107.994 18.31C107.277 18.6033 106.739 18.9833 106.38 19.45C106.022 19.9033 105.842 20.4633 105.842 21.13C105.842 21.7433 105.988 22.2033 106.281 22.51C106.573 22.8033 106.965 22.95 107.456 22.95C107.669 22.95 107.895 22.9033 108.134 22.81C108.386 22.7033 108.672 22.5233 108.991 22.27C109.323 22.0033 109.708 21.63 110.146 21.15L110.465 22.21H109.768C109.383 22.6233 109.017 22.9767 108.672 23.27C108.34 23.5633 107.974 23.7833 107.576 23.93C107.191 24.09 106.732 24.17 106.201 24.17ZM111.761 24.15C111.083 24.15 110.565 23.9567 110.206 23.57C109.848 23.17 109.628 22.6367 109.549 21.97V16.23C109.549 15.51 109.482 14.9567 109.349 14.57C109.217 14.17 108.997 13.89 108.692 13.73C108.386 13.57 107.974 13.49 107.456 13.49C107.111 13.49 106.759 13.53 106.4 13.61C106.042 13.69 105.623 13.83 105.145 14.03L106.38 13.53L106.181 15.07C106.141 15.6433 105.995 16.05 105.743 16.29C105.504 16.53 105.211 16.65 104.866 16.65C104.215 16.65 103.81 16.3433 103.65 15.73C103.783 14.8233 104.248 14.11 105.045 13.59C105.856 13.07 106.958 12.81 108.353 12.81C109.682 12.81 110.645 13.1167 111.242 13.73C111.854 14.3433 112.159 15.3433 112.159 16.73V21.95C112.159 22.4167 112.219 22.7367 112.338 22.91C112.458 23.0833 112.624 23.17 112.837 23.17C112.983 23.17 113.122 23.1233 113.255 23.03C113.388 22.9367 113.547 22.7633 113.733 22.51L114.072 22.79C113.833 23.27 113.527 23.6167 113.155 23.83C112.783 24.0433 112.318 24.15 111.761 24.15Z" fill="white"></path>
<path d="M89.1923 23.91L85.3864 13.13H88.1562L90.8463 21.75L90.5274 21.77L90.6271 21.49L93.3969 13.13H94.7519L97.701 21.77H97.3623L97.442 21.53L99.9527 13.13H100.849L97.1829 23.91H96.0272L92.9784 14.93H93.5762L93.4168 15.33L90.3481 23.91H89.1923ZM84.5494 13.73V13.13H90.0691V13.73L87.4986 13.95H86.6019L84.5494 13.73ZM91.6832 13.73V13.13H96.625V13.73L94.5128 13.95H93.7954L91.6832 13.73ZM97.9601 13.73V13.13H102.045V13.73L100.371 13.95H100.032L97.9601 13.73Z" fill="white"></path>
<path d="M77.8975 23.85V23.25L80.0297 23.05H81.2651L83.4172 23.25V23.85H77.8975ZM79.3123 23.85C79.3256 23.5167 79.3322 23.07 79.3322 22.51C79.3455 21.95 79.3522 21.37 79.3522 20.77C79.3654 20.1567 79.3721 19.6167 79.3721 19.15V17.69C79.3721 17.0233 79.3654 16.45 79.3522 15.97C79.3522 15.49 79.3389 15.01 79.3123 14.53L77.7381 14.39V13.91L81.8629 12.85L82.122 13.01L82.0423 16.09V19.15C82.0423 19.6167 82.0423 20.1567 82.0423 20.77C82.0555 21.37 82.0688 21.95 82.0821 22.51C82.0954 23.07 82.1087 23.5167 82.122 23.85H79.3123ZM80.6075 10.75C80.1957 10.75 79.837 10.6167 79.5315 10.35C79.2392 10.07 79.0931 9.71 79.0931 9.27C79.0931 8.85667 79.2392 8.51667 79.5315 8.25C79.837 7.97 80.1957 7.83 80.6075 7.83C81.0194 7.83 81.3714 7.97 81.6637 8.25C81.9692 8.51667 82.122 8.85667 82.122 9.27C82.122 9.71 81.9692 10.07 81.6637 10.35C81.3714 10.6167 81.0194 10.75 80.6075 10.75Z" fill="white"></path>
<path d="M68.3933 24.17C67.5564 24.17 66.8656 23.9367 66.3209 23.47C65.7895 22.99 65.5238 22.33 65.5238 21.49C65.5238 20.9167 65.65 20.4167 65.9024 19.99C66.1548 19.55 66.5733 19.1633 67.1578 18.83C67.7556 18.4833 68.5527 18.17 69.549 17.89C70.0804 17.7433 70.6716 17.5833 71.3225 17.41C71.9867 17.2367 72.5845 17.09 73.1159 16.97V17.47C72.5845 17.6033 72.0531 17.75 71.5218 17.91C70.9904 18.0567 70.5454 18.19 70.1867 18.31C69.4693 18.6033 68.9313 18.9833 68.5726 19.45C68.2139 19.9033 68.0346 20.4633 68.0346 21.13C68.0346 21.7433 68.1807 22.2033 68.473 22.51C68.7652 22.8033 69.1571 22.95 69.6487 22.95C69.8612 22.95 70.087 22.9033 70.3262 22.81C70.5786 22.7033 70.8642 22.5233 71.183 22.27C71.5151 22.0033 71.9004 21.63 72.3388 21.15L72.6576 22.21H71.9601C71.5749 22.6233 71.2096 22.9767 70.8642 23.27C70.5321 23.5633 70.1668 23.7833 69.7682 23.93C69.383 24.09 68.9247 24.17 68.3933 24.17ZM73.9528 24.15C73.2753 24.15 72.7572 23.9567 72.3985 23.57C72.0399 23.17 71.8207 22.6367 71.741 21.97V16.23C71.741 15.51 71.6745 14.9567 71.5417 14.57C71.4088 14.17 71.1896 13.89 70.8841 13.73C70.5786 13.57 70.1667 13.49 69.6487 13.49C69.3033 13.49 68.9512 13.53 68.5925 13.61C68.2339 13.69 67.8154 13.83 67.3372 14.03L68.5726 13.53L68.3734 15.07C68.3335 15.6433 68.1874 16.05 67.935 16.29C67.6958 16.53 67.4036 16.65 67.0582 16.65C66.4073 16.65 66.0021 16.3433 65.8427 15.73C65.9755 14.8233 66.4405 14.11 67.2375 13.59C68.0479 13.07 69.1505 12.81 70.5454 12.81C71.8738 12.81 72.8369 13.1167 73.4347 13.73C74.0458 14.3433 74.3513 15.3433 74.3513 16.73V21.95C74.3513 22.4167 74.4111 22.7367 74.5307 22.91C74.6502 23.0833 74.8163 23.17 75.0289 23.17C75.175 23.17 75.3145 23.1233 75.4473 23.03C75.5802 22.9367 75.7396 22.7633 75.9256 22.51L76.2643 22.79C76.0252 23.27 75.7196 23.6167 75.3477 23.83C74.9757 24.0433 74.5108 24.15 73.9528 24.15Z" fill="white"></path>
<path d="M54.5888 23.85V23.19L57.7372 22.91H58.5143L61.7225 23.19V23.85H54.5888ZM56.6811 23.85C56.7076 22.7167 56.7209 21.5767 56.7209 20.43C56.7342 19.27 56.7409 18.1033 56.7409 16.93V15.97C56.7409 14.81 56.7342 13.6567 56.7209 12.51C56.7209 11.35 56.7076 10.19 56.6811 9.03H59.6302C59.6036 10.1633 59.5837 11.3167 59.5704 12.49C59.5704 13.65 59.5704 14.81 59.5704 15.97V16.91C59.5704 18.07 59.5704 19.23 59.5704 20.39C59.5837 21.5367 59.6036 22.69 59.6302 23.85H56.6811ZM51.6795 13.19L51.7791 9.03H64.5123L64.6318 13.19H63.5757L62.5196 9.03L63.8547 9.79H52.4367L53.7917 9.03L52.7356 13.19H51.6795Z" fill="white"></path>
<path d="M45.0741 23.91L40.7102 13.13H43.6394L46.8874 21.83H46.469L46.5686 21.55L49.4181 13.13H50.3148L46.2498 23.91H45.0741ZM39.8533 13.73V13.13H45.5723V13.73L43.46 13.95H41.7862L39.8533 13.73ZM47.545 13.73V13.13H51.4307V13.73L49.8166 13.95H49.4181L47.545 13.73Z" fill="white"></path>
</svg>